<svg xmlns="http://www.w3.org/2000/svg" viewBox="0 0 256 256" role="img" aria-labelledby="title"><title>Runefolio favicon</title><path fill="#0F1D29" d="M0 0h256v256H0z"/>
    <path d="M96 31A101 101 0 0 0 96 225" fill="none" stroke="#C79A45" stroke-width="14" stroke-linecap="butt"/>
    <path d="M160 31A101 101 0 0 1 160 225" fill="none" stroke="#C79A45" stroke-width="14" stroke-linecap="butt"/>
    <path d="M82 55h54l45 42-42 40 39 54-30 18-40-58v51l-26-12V55Zm26 29v46l45-33-45-13Z" fill="#F6EBD6" fill-rule="evenodd"/>
    <path d="m128 5 13 24-13 24-13-24 13-24Zm0 198 13 24-13 24-13-24 13-24Z" fill="#C79A45"/>
    <path d="m101 112 10 19-10 19-10-19 10-19Z" fill="#0F1D29"/></svg>
